<svg width="840" height="308" viewBox="0 0 840 308" fill="none" xmlns="http://www.w3.org/2000/svg">
  <rect width="840" height="308" rx="28" fill="#F8FAFC"/>
  <rect x="24" y="24" width="792" height="260" rx="24" fill="white" stroke="#D8E0EA"/>
  <rect x="56" y="56" width="152" height="196" rx="18" fill="#0F172A"/>
  <circle cx="86" cy="90" r="14" fill="#14B8A6"/>
  <rect x="82" y="118" width="56" height="8" rx="4" fill="#334155"/>
  <rect x="82" y="142" width="88" height="8" rx="4" fill="#334155"/>
  <rect x="82" y="166" width="70" height="8" rx="4" fill="#334155"/>
  <rect x="240" y="56" width="248" height="78" rx="16" fill="#F8FAFC" stroke="#D8E0EA"/>
  <rect x="264" y="82" width="82" height="10" rx="5" fill="#64748B"/>
  <rect x="264" y="104" width="148" height="14" rx="7" fill="#0F172A"/>
  <rect x="520" y="56" width="248" height="78" rx="16" fill="#F8FAFC" stroke="#D8E0EA"/>
  <rect x="544" y="82" width="92" height="10" rx="5" fill="#64748B"/>
  <rect x="544" y="104" width="132" height="14" rx="7" fill="#0F172A"/>
  <rect x="240" y="166" width="528" height="86" rx="18" fill="#F8FAFC" stroke="#D8E0EA"/>
  <path d="M270 226C293 178 315 220 337 196C360 171 380 210 404 183C428 156 454 206 480 172C505 140 529 198 554 160C581 121 610 190 638 146C660 112 694 151 736 122" stroke="#14B8A6" stroke-width="8" stroke-linecap="round"/>
  <rect x="540" y="190" width="176" height="12" rx="6" fill="#CBD5E1"/>
  <rect x="540" y="214" width="124" height="12" rx="6" fill="#CBD5E1"/>
</svg>
